<?xml version="1.0" encoding="utf-8"?>
<!-- Generator: Adobe Illustrator 23.0.5, SVG Export Plug-In . SVG Version: 6.00 Build 0)  -->
<svg version="1.1" id="Layer_1" xmlns="http://www.w3.org/2000/svg" xmlns:xlink="http://www.w3.org/1999/xlink" x="0px" y="0px"
	 viewBox="0 0 720 720" style="enable-background:new 0 0 720 720;" xml:space="preserve">
<style type="text/css">
	.st0{fill:#382F7C;}
	.st1{display:none;}
	.st2{display:inline;}
	.st3{fill:#606060;}
	.st4{fill:none;}
	.st5{fill:#FFFFFF;stroke:#000000;stroke-miterlimit:10;}
	.st6{font-family:'MyriadPro-Regular';}
	.st7{font-size:182px;}
</style>
<g>
	<path class="st0" d="M360,664.5c-84.01,0-162.99-31.68-222.39-89.19C78.21,517.8,45.5,441.33,45.5,360s32.71-157.8,92.11-215.31
		C197.01,87.18,275.99,55.5,360,55.5s162.99,31.68,222.39,89.19C641.79,202.2,674.5,278.67,674.5,360s-32.71,157.8-92.11,215.31
		C522.99,632.82,444.01,664.5,360,664.5z"/>
	<g>
		<path d="M360,56c42.39,0,83.52,8.04,122.23,23.89c37.39,15.31,70.97,37.24,99.81,65.16c28.83,27.92,51.47,60.43,67.29,96.63
			C665.7,279.16,674,318.96,674,360s-8.3,80.84-24.67,118.32c-15.81,36.2-38.45,68.71-67.29,96.63
			c-28.84,27.92-62.42,49.84-99.81,65.16C443.52,655.96,402.39,664,360,664c-42.39,0-83.52-8.04-122.23-23.89
			c-37.39-15.31-70.97-37.24-99.81-65.16c-28.83-27.92-51.47-60.43-67.29-96.63C54.3,440.84,46,401.04,46,360
			s8.3-80.84,24.67-118.32c15.81-36.2,38.45-68.71,67.29-96.63c28.84-27.92,62.42-49.84,99.81-65.16C276.48,64.04,317.61,56,360,56
			 M360,55C186.03,55,45,191.55,45,360s141.03,305,315,305s315-136.55,315-305S533.97,55,360,55L360,55z"/>
	</g>
</g>
<g class="st1">
	<g class="st2">
		<path class="st3" d="M-307.26,140.54c1.93,0,1.93-3,0-3C-309.19,137.54-309.19,140.54-307.26,140.54L-307.26,140.54z"/>
	</g>
</g>
<rect x="76.54" y="151" class="st4" width="566.46" height="418"/>
<text transform="matrix(1 0 0 1 157.4795 280.2183)"><tspan x="0" y="0" class="st5 st6 st7">JAY’S </tspan><tspan x="-11.47" y="218.4" class="st5 st6 st7">BLOG</tspan></text>
<rect x="490.36" y="537.34" class="st4" width="53.11" height="13.28"/>
<rect x="495.47" y="544.49" class="st4" width="15.32" height="22.47"/>
</svg>
